<svg xmlns="http://www.w3.org/2000/svg" width="2000" height="2000" enable-background="new 0 0 2000 2000" viewBox="0 0 2000 2000" id="burger"><ellipse cx="657.511" cy="690.019" rx="57.022" ry="29.751" transform="rotate(-134.999 657.514 690.024)"></ellipse><path d="M751.4385,545.1738c-22.2686,22.2686-30.9023,49.7383-19.2832,61.3574s39.0879,2.9854,61.356-19.2822
		c22.27-22.2686,30.9023-49.7383,19.2847-61.3584C801.1748,514.2715,773.7046,522.9053,751.4385,545.1738z"></path><ellipse cx="989.142" cy="577.76" rx="29.751" ry="57.022" transform="rotate(-134.999 989.151 577.76)"></ellipse><ellipse cx="1192.553" cy="577.764" rx="29.752" ry="57.021" transform="rotate(-134.999 1192.548 577.777)"></ellipse><ellipse cx="1080.116" cy="690.018" rx="57.022" ry="29.753" transform="rotate(-134.999 1080.12 690.023)"></ellipse><ellipse cx="1342.487" cy="697.388" rx="57.022" ry="29.753" transform="rotate(-134.999 1342.494 697.392)"></ellipse><ellipse cx="863.45" cy="690.019" rx="57.022" ry="29.751" transform="rotate(-134.999 863.458 690.022)"></ellipse><path d="M1687.3999,1155.9717v-66.4736c59.9692-12.6045,104.6504-59.6641,104.6504-115.6357
		c0-56.2354-45.1011-103.4785-105.4956-115.8164c-3.9941-63.9395-22.2783-125.9248-54.522-184.625
		c-35.1152-63.9268-85.2051-121.2002-148.8779-170.2295c-63.0923-48.582-136.4297-86.6807-217.9746-113.2383
		c-84.0522-27.375-173.2715-41.2549-265.1802-41.2549s-181.1279,13.8799-265.1807,41.2549
		c-81.5444,26.5576-154.8823,64.6563-217.9746,113.2383c-63.6729,49.0293-113.7627,106.3027-148.8779,170.2295
		c-32.2432,58.6992-50.5327,120.6865-54.5273,184.626c-60.3916,12.3398-105.4902,59.582-105.4902,115.8154
		c0,56.6338,45.7437,104.1445,106.7832,116.0703v65.6045c-61.0396,11.9258-106.7832,59.4375-106.7832,116.0713
		c0,56.6348,45.7437,104.1455,106.7832,116.0713v103.2559c0,23.2627,6.6768,45.6689,19.8452,66.5957
		c11.9932,19.0596,28.8457,35.9961,50.0894,50.3389c41.4834,28.0078,95.876,43.4316,153.1582,43.4316h926.4819
		c57.2827,0,111.6753-15.4238,153.1582-43.4316c21.2437-14.3428,38.0962-31.2793,50.0898-50.3389
		c13.168-20.9268,19.8447-43.333,19.8447-66.5957v-103.6904c59.9692-12.6045,104.6504-59.6641,104.6504-115.6367
		C1792.0503,1215.6367,1747.3691,1168.5771,1687.3999,1155.9717z M374.7324,1092.8223h1252.6675v59.8252H374.7324V1092.8223z
		 M1000,408.6982c332.668,0,605.6958,197.5527,626.1689,446.2031H373.8306C394.3037,606.251,667.3315,408.6982,1000,408.6982z
		 M267.9492,973.8623c0-31.96,35.1626-58.9609,76.7832-58.9609h1310.5342c41.6211,0,76.7837,27.001,76.7837,58.9609
		s-35.1626,58.96-76.7837,58.96H344.7324C303.1118,1032.8223,267.9492,1005.8223,267.9492,973.8623z M1583.8921,1558.1426
		c-31.2124,21.0732-74.7993,33.1592-119.585,33.1592H537.8252c-44.7852,0-88.3721-12.0859-119.585-33.1592
		c-28.0566-18.9424-43.5078-42.8105-43.5078-67.207v-100.3662h130.1816l49.3594,104.1475
		c5.1108,10.7832,15.8599,17.1582,27.1221,17.1582c3.8589,0,7.7778-0.749,11.5508-2.3252l284.834-118.9805h360.6479
		c0.1948,3.1035,0.4531,6.335,0.7905,9.6504c3.3916,33.2803,12.9526,58.6123,28.4185,75.291
		c13.5605,14.625,31.3618,22.3545,51.479,22.3545c20.5469,0,38.7808-7.8428,52.7295-22.6807
		c21.4341-22.8008,28.4219-58.583,30.5098-84.6152h58.3276c0.9561,12.5566,2.6045,27.7793,5.4443,43.1143
		c4.2295,22.8379,10.3369,41.5508,18.1523,55.6172c17.6792,31.8193,42.1719,36.5703,55.1978,36.5703
		c16.8892,0,32.1475-6.7461,44.1255-19.5088c17.2095-18.3379,27.2773-48.6035,30.7798-92.5283
		c0.6572-8.2441,1.0068-16.1445,1.1685-23.2646h11.8486v100.3662C1627.3999,1515.332,1611.9487,1539.2002,1583.8921,1558.1426z
		 M571.3115,1390.5693h150.8052l-125.8838,52.584L571.3115,1390.5693z M1655.2666,1330.5693h-70.0957
		c-8.2871,0-16.2046,3.4277-21.8755,9.4697c-5.6709,6.043-8.5898,14.1621-8.0645,22.4316
		c0.0161,0.2471,1.5347,24.9619-1.1538,52.1523c-3.2373,32.7441-10.4966,46.6689-13.9824,50.4873
		c-3.0737-3.5811-11.1294-15.9805-16.5132-51.5518c-4.1396-27.3486-4.2197-52.7559-4.2202-52.9893c0-16.5684-13.4316-30-30-30
		H1372.916c-8.2778,0-16.188,3.4209-21.8579,9.4521c-5.6699,6.0303-8.5957,14.1367-8.085,22.3994
		c1.3076,21.1436-2.5059,58.543-14.8433,71.667c-2.5884,2.7539-5.0317,3.7773-9.0137,3.7773c-3.4023,0-5.2852-0.7891-7.4619-3.1279
		c-11.8057-12.6855-15.0161-50.4395-13.4722-71.9063c0.6294-8.3262-2.2393-16.5371-7.9165-22.6602
		c-5.6768-6.1221-13.6484-9.6016-21.998-9.6016H872.1309c-0.1982-0.0029-0.397-0.001-0.5957,0H524.229
		c-0.147-0.002-0.2944,0-0.4414,0H344.7324c-41.6206,0-76.7832-27.001-76.7832-58.9609s35.1626-58.9609,76.7832-58.9609h1310.5342
		c41.6211,0,76.7837,27.001,76.7837,58.9609S1696.8877,1330.5693,1655.2666,1330.5693z"></path></svg>